HIERARCHY
ROOT root
{
	OFFSET	0	13.1	24.9
	CHANNELS 6  Xposition Yposition Zposition Xrotation Yrotation Zrotation
	JOINT spine_1
	{
		OFFSET	0	9.99999	0
		CHANNELS 3  Xrotation Yrotation Zrotation
		JOINT spine_2
		{
			OFFSET	0	112	-10
			CHANNELS 3  Xrotation Yrotation Zrotation
			JOINT spine_3
			{
				OFFSET	0	206.5	19.3
				CHANNELS 3  Xrotation Yrotation Zrotation
				JOINT spine_4
				{
					OFFSET	0	110.4	14.6
					CHANNELS 3  Xrotation Yrotation Zrotation
					JOINT neck_1
					{
						OFFSET	0	71.8	-50.3
						CHANNELS 3  Xrotation Yrotation Zrotation
						JOINT neck_2
						{
							OFFSET	0	86.2	-25.8
							CHANNELS 3  Xrotation Yrotation Zrotation
							JOINT head_ee
							{
								OFFSET	0	179.8	-8.7
								CHANNELS 3  Xrotation Yrotation Zrotation
								End Site
								{
									OFFSET	1	0	0
								}
							}
						}
					}
					JOINT left_clavicle
					{
						OFFSET	-43.2	22.4	-70.8
						CHANNELS 3  Xrotation Yrotation Zrotation
						JOINT left_shoulder
						{
							OFFSET	-93.9	-5.79999	48.7
							CHANNELS 3  Xrotation Yrotation Zrotation
							JOINT left_elbow
							{
								OFFSET	-291.4	-30.8	15.2
								CHANNELS 3  Xrotation Yrotation Zrotation
								JOINT left_lowarm_twist
								{
									OFFSET	-110.7	-3.89999	13.6
									CHANNELS 3  Xrotation Yrotation Zrotation
									JOINT left_hand
									{
										OFFSET	-110.7	-3.89999	13.6
										CHANNELS 3  Xrotation Yrotation Zrotation
										JOINT left_ee
										{
											OFFSET	-80.8	-5.10001	12.1
											CHANNELS 3  Xrotation Yrotation Zrotation
											End Site
											{
												OFFSET	1	0	0
											}
										}
									}
								}
							}
						}
					}
					JOINT right_clavicle
					{
						OFFSET	43.2	22.4	-70.8
						CHANNELS 3  Xrotation Yrotation Zrotation
						JOINT right_shoulder
						{
							OFFSET	93.9	-5.79999	48.7
							CHANNELS 3  Xrotation Yrotation Zrotation
							JOINT right_elbow
							{
								OFFSET	291.4	-30.8	15.2
								CHANNELS 3  Xrotation Yrotation Zrotation
								JOINT right_lowarm_twist
								{
									OFFSET	110.7	-3.89999	13.6
									CHANNELS 3  Xrotation Yrotation Zrotation
									JOINT right_hand
									{
										OFFSET	110.7	-3.89999	13.6
										CHANNELS 3  Xrotation Yrotation Zrotation
										JOINT right_ee
										{
											OFFSET	80.8	-5.10001	12.1
											CHANNELS 3  Xrotation Yrotation Zrotation
											End Site
											{
												OFFSET	1	0	0
											}
										}
									}
								}
							}
						}
					}
				}
			}
		}
	}
	JOINT left_hip
	{
		OFFSET	-82.8	-127.5	0.300001
		CHANNELS 3  Xrotation Yrotation Zrotation
		JOINT left_knee
		{
			OFFSET	-28.2	-396.7	2.2
			CHANNELS 3  Xrotation Yrotation Zrotation
			JOINT left_ankle
			{
				OFFSET	-11.7	-411.3	35.4
				CHANNELS 3  Xrotation Yrotation Zrotation
				JOINT left_toes
				{
					OFFSET	0	-60	-88.6
					CHANNELS 3  Xrotation Yrotation Zrotation
					JOINT left_foot_ee
					{
						OFFSET	-22.5	-16.5	-42.2
						CHANNELS 3  Xrotation Yrotation Zrotation
						End Site
						{
							OFFSET	1	0	0
						}
					}
				}
			}
		}
	}
	JOINT right_hip
	{
		OFFSET	82.8	-127.5	0.300001
		CHANNELS 3  Xrotation Yrotation Zrotation
		JOINT right_knee
		{
			OFFSET	28.2	-396.7	2.2
			CHANNELS 3  Xrotation Yrotation Zrotation
			JOINT right_ankle
			{
				OFFSET	11.7	-411.3	35.4
				CHANNELS 3  Xrotation Yrotation Zrotation
				JOINT right_toes
				{
					OFFSET	0	-60	-88.6
					CHANNELS 3  Xrotation Yrotation Zrotation
					JOINT right_foot_ee
					{
						OFFSET	22.5	-16.5	-42.2
						CHANNELS 3  Xrotation Yrotation Zrotation
						End Site
						{
							OFFSET	1	0	0
						}
					}
				}
			}
		}
	}
}
MOTION
Frames: 10
Frame Time: 0.02
1078.5888251 725.383 -1545.34609731 25.7019166167 65.7367389119 -26.3480515981 -1.19139 0.324054 1.46224 -1.19023 0.230362 1.47989 -1.18318 -0.116678 1.49315 -1.18627 0.120576 1.49285 -20.0752 3.78189 2.64819 -20.1046 5.9506 4.04196 -0.0 0.0 -0.0 0.254191 14.9058 2.16168 -20.4249 -18.682 67.5507 0.484583 -13.4985 0.0573482 -26.4729 -1.64042 2.92999 2.36376 28.3839 24.7831 -0.0 0.0 -0.0 7.09208 28.3205 -12.1807 1.13857 6.75566 -66.0469 1.61933 38.7326 -0.569219 36.6485 0.186515 4.59905 1.22099 -21.1819 -15.8897 0.0 0.0 0.0 15.5011 16.1348 -7.02771 -61.8388 -2.40177 8.72485 -19.2629 -11.5178 3.08548 0.355296 -0.0 -0.0 -0.0 0.0 -0.0 -6.45281 -6.87257 0.0584769 -5.68582 -0.191993 -0.851128 3.16773 26.4719 0.559594 24.776 -0.0 -0.0 0.0 0.0 0.0 
1081.15171284 725.383 -1555.31567543 23.9534437688 63.9623550899 -24.4167179669 -1.19139 0.324054 1.46224 -1.19023 0.230362 1.47989 -1.18318 -0.116678 1.49315 -1.18627 0.120576 1.49285 -20.0752 3.78189 2.64819 -20.1046 5.9506 4.04196 -0.0 0.0 -0.0 0.254191 14.9058 2.16168 -20.4249 -18.682 67.5507 0.484583 -13.4985 0.0573482 -26.4729 -1.64042 2.92999 2.36376 28.3839 24.7831 -0.0 0.0 -0.0 7.09208 28.3205 -12.1807 1.13857 6.75566 -66.0469 1.61933 38.7326 -0.569219 36.6485 0.186515 4.59905 1.22099 -21.1819 -15.8897 0.0 0.0 0.0 15.5011 16.1348 -7.02771 -61.8388 -2.40177 8.72485 -19.2629 -11.5178 3.08548 0.355296 -0.0 -0.0 -0.0 0.0 -0.0 -6.45281 -6.87257 0.0584769 -5.68582 -0.191993 -0.851128 3.16773 26.4719 0.559594 24.776 -0.0 -0.0 0.0 0.0 0.0 
1067.49959893 723.828 -1557.78751328 22.9140458851 63.810165968 -24.1540937742 -1.20409 0.355873 1.8602 -1.20219 0.236804 1.87907 -1.1927 -0.20269 1.88305 -1.19764 0.0971917 1.89143 -19.0797 2.26152 1.06315 -19.0952 3.79908 1.89607 -0.0 0.0 -0.0 -0.32065 14.4785 1.18723 -20.5246 -17.9812 68.7817 0.429547 -12.0127 0.0451957 -27.839 -1.76017 3.05775 2.49556 23.611 24.5621 -0.0 0.0 -0.0 6.93678 28.5657 -11.8134 3.02463 6.41583 -65.8381 1.7451 40.8388 -0.649713 37.0019 0.202578 4.64129 1.10176 -23.0295 -15.7408 0.0 0.0 0.0 16.164 13.15 -5.60517 -61.2804 -2.33982 8.66497 -15.7804 -15.2931 2.59149 -0.00532965 0.0 0.0 -0.0 0.0 -0.0 -6.71677 -4.5713 1.25315 -4.92736 -0.171283 -0.736573 2.30489 22.9657 0.392391 27.663 -0.0 -0.0 0.0 0.0 0.0 
1053.79815039 724.113 -1556.91416762 22.0233882989 63.3173939319 -23.4556307286 -1.14302 0.708211 2.04387 -1.14088 0.576749 2.08477 -1.1175 0.0837387 2.16142 -1.12377 0.423966 2.1211 -20.3596 2.2305 2.10358 -20.3618 3.24607 2.89626 -0.0 0.0 -0.0 -0.414717 13.8498 0.956211 -21.3288 -16.4148 69.1241 0.433766 -12.1272 0.0460779 -28.4529 -1.81497 3.11423 2.6011 20.0228 24.3594 -0.0 0.0 -0.0 6.72998 29.0726 -11.3042 4.23174 6.14501 -65.6283 1.8731 42.8533 -0.735119 37.2268 0.212934 4.66811 1.09901 -20.519 -14.9272 0.0 0.0 0.0 16.2545 9.19451 -3.87026 -57.9485 -1.98258 8.29556 -6.39448 -12.6906 1.01771 -1.02182 0.0 0.0 -0.0 0.0 -0.0 -7.32368 -2.13669 1.57188 -5.0169 -0.173807 -0.750083 3.73284 20.3757 0.61633 28.0272 -0.0 -0.0 0.0 0.0 0.0 
1015.98332075 716.788 -1564.1119431 20.5754363798 63.3293059708 -21.8266436459 -1.08755 0.796278 2.04799 -1.08546 0.664375 2.09448 -1.05873 0.16912 2.19077 -1.06506 0.51291 2.13661 -19.2541 1.50247 1.25049 -19.2561 2.24305 1.76986 -0.0 0.0 -0.0 -1.25716 12.096 -0.67683 -23.1468 -14.3888 72.2819 0.38893 -10.9054 0.0371259 -28.3922 -1.80953 3.10868 3.84978 9.23895 30.1202 -0.0 0.0 -0.0 6.09439 28.5728 -9.97291 5.07804 6.35811 -65.436 2.41814 50.1369 -1.13125 36.0539 0.160081 4.52778 0.57578 -21.7942 -12.1742 0.0 0.0 0.0 15.4638 -3.79317 -0.927419 -39.9954 -0.466471 5.99764 8.42094 -5.81168 -1.23906 -7.34053 0.0 0.0 -0.0 0.0 -0.0 -7.83824 1.02573 1.36732 -11.2977 -0.297838 -1.70544 14.545 8.59324 2.11629 32.4477 -0.0 -0.0 0.0 0.0 0.0 
1014.90865108 716.788 -1559.69079087 21.0856747587 63.9932231435 -22.3959770213 -1.08755 0.796278 2.04799 -1.08546 0.664375 2.09448 -1.05873 0.16912 2.19077 -1.06506 0.51291 2.13661 -19.2541 1.50247 1.25049 -19.2561 2.24305 1.76986 -0.0 0.0 -0.0 -1.25716 12.096 -0.67683 -23.1468 -14.3888 72.2819 0.38893 -10.9054 0.0371259 -28.3922 -1.80953 3.10868 3.84978 9.23895 30.1202 -0.0 0.0 -0.0 6.09439 28.5728 -9.97291 5.07804 6.35811 -65.436 2.41814 50.1369 -1.13125 36.0539 0.160081 4.52778 0.57578 -21.7942 -12.1742 0.0 0.0 0.0 15.4638 -3.79317 -0.927419 -39.9954 -0.466471 5.99764 8.42094 -5.81168 -1.23906 -7.34053 0.0 0.0 -0.0 0.0 -0.0 -7.83824 1.02573 1.36732 -11.2977 -0.297838 -1.70544 14.545 8.59324 2.11629 32.4477 -0.0 -0.0 0.0 0.0 0.0 
997.588644837 718.626 -1560.02488733 21.2272536749 65.7067065357 -22.4894672314 -1.12499 0.769126 2.08708 -1.12279 0.634792 2.13176 -1.09664 0.130322 2.22041 -1.1032 0.479275 2.172 -18.7163 0.593785 -1.60929 -18.7144 1.99698 -1.26541 -0.0 0.0 -0.0 -1.46441 10.4983 -1.26721 -24.0176 -13.8403 73.5009 0.424909 -11.8867 0.0442354 -28.6459 -1.83233 3.13188 4.1866 6.4701 31.763 -0.0 0.0 -0.0 5.70899 26.8201 -9.32128 4.18399 6.50903 -65.1312 2.62836 52.4652 -1.29534 34.1457 0.0802794 4.29728 0.541537 -21.0071 -11.696 0.0 0.0 0.0 14.0392 -13.9174 1.38871 -26.5651 0.160229 4.03717 15.761 3.33301 -2.19773 -13.7104 0.0 0.0 -0.0 0.0 -0.0 -6.50006 2.61448 1.63802 -17.293 -0.318041 -2.62466 20.0454 3.67571 2.78542 33.0727 -0.0 -0.0 0.0 0.0 0.0 
980.013242529 713.925 -1559.95110952 19.7820469484 66.8767765908 -20.2971100437 -1.19017 0.731512 2.17398 -1.18774 0.591729 2.21609 -1.16214 0.0664516 2.29273 -1.16922 0.427619 2.2535 -16.8037 1.30522 -2.29153 -16.8046 3.79684 -1.67668 -0.0 0.0 -0.0 -2.30007 10.0641 -2.77928 -24.3109 -13.9032 74.8143 0.510297 -14.1866 0.0635005 -28.1608 -1.78883 3.08744 4.39041 5.65989 33.0741 -0.0 0.0 -0.0 5.23545 25.0085 -8.47567 4.43152 6.49715 -65.6317 2.97222 55.805 -1.57413 34.8101 0.107188 4.37782 0.359184 -20.6567 -10.4738 0.0 0.0 0.0 9.8585 -28.9518 -1.16063 -10.213 0.283913 1.53958 19.3219 15.172 -2.67215 -17.3761 0.0 0.0 -0.0 0.0 -0.0 -5.82375 3.63485 0.501382 -17.8807 -0.314843 -2.71478 19.6676 3.17189 2.7335 34.867 -0.0 -0.0 0.0 0.0 0.0 
968.563986876 710.178 -1564.13351898 18.6398070092 68.3893876217 -19.2898896706 -1.1297 0.63679 2.29388 -1.12691 0.489575 2.32972 -1.10419 -0.056775 2.3799 -1.11195 0.319692 2.35903 -17.4735 0.823224 -2.97436 -17.461 3.22411 -2.4753 -0.0 0.0 -0.0 -2.36643 9.09514 -3.06141 -24.3361 -13.9404 74.788 0.510387 -14.189 0.0635226 -26.6751 -1.65795 2.94907 4.8964 2.96949 36.1502 -0.0 0.0 -0.0 5.19826 24.9547 -8.40014 5.25865 6.77892 -64.8704 3.1158 57.049 -1.69376 36.2983 0.170858 4.55711 0.584749 -19.9292 -11.5809 0.0 0.0 0.0 8.00649 -28.4545 -3.31853 0.681264 -0.0286521 -0.100617 18.3184 16.6925 -2.5545 -19.3972 0.0 0.0 -0.0 0.0 -0.0 -5.49671 3.46156 0.257244 -18.9329 -0.30681 -2.87601 25.542 3.05655 3.44182 37.2167 -0.0 -0.0 0.0 0.0 0.0 
956.07565681 707.759 -1562.40308441 19.0699232348 68.4819554626 -19.5766104363 -1.24427 0.569171 2.3453 -1.2413 0.418824 2.37674 -1.22099 -0.141391 2.40919 -1.22901 0.240758 2.4013 -17.8904 0.983498 -2.98119 -17.8808 3.51568 -2.41111 -0.0 0.0 -0.0 -2.30332 9.04804 -2.95852 -24.2545 -13.6453 74.9889 0.498085 -13.8603 0.0605413 -26.8164 -1.67024 2.96238 4.87532 2.83846 35.9225 -0.0 0.0 -0.0 5.01179 24.8907 -8.001 5.7248 7.05193 -64.9202 3.04721 56.4649 -1.6364 36.3107 0.171405 4.55859 0.63015 -19.3187 -11.6437 0.0 0.0 0.0 8.56162 -28.2418 -3.16841 0.866845 -0.0366649 -0.127967 17.8613 18.0648 -2.50608 -19.2907 0.0 0.0 -0.0 0.0 -0.0 -5.71944 3.51086 0.555007 -20.1849 -0.293395 -3.06764 22.9507 2.18667 3.12837 36.8102 -0.0 -0.0 0.0 0.0 0.0 
